<svg width="601" height="282" viewBox="0 0 601 282" fill="none" xmlns="http://www.w3.org/2000/svg">
<path fill-rule="evenodd" clip-rule="evenodd" d="M207.41 103.65C185.408 103.614 163.907 121.968 159.386 144.638L140.432 239.69C135.91 262.362 150.081 280.767 172.082 280.8C194.085 280.829 215.586 262.483 220.108 239.808L239.063 144.758C243.585 122.089 229.412 103.684 207.41 103.65Z" fill="black"/>
<path fill-rule="evenodd" clip-rule="evenodd" d="M426.716 8.90392C404.714 8.86761 383.213 27.2212 378.691 49.891L359.737 144.943C355.215 167.613 369.387 186.02 391.389 186.054C413.391 186.083 434.892 167.736 439.414 145.061L458.368 50.0117C462.888 27.342 448.718 8.93735 426.716 8.90392Z" fill="black"/>
<path fill-rule="evenodd" clip-rule="evenodd" d="M387.499 205.553C369.007 205.531 350.937 220.951 347.137 240.003C343.336 259.058 355.248 274.526 373.738 274.554C392.229 274.583 410.3 259.158 414.1 240.106C417.9 221.051 405.991 205.581 387.499 205.553Z" fill="black"/>
<path fill-rule="evenodd" clip-rule="evenodd" d="M212.605 77.602C231.097 77.631 249.168 62.2036 252.968 43.149C256.768 24.0969 244.859 8.629 226.367 8.59819C207.875 8.56914 189.805 23.9941 186.004 43.0487C182.204 62.1034 194.114 77.5711 212.605 77.602Z" fill="black"/>
<path fill-rule="evenodd" clip-rule="evenodd" d="M126.19 8.44918C104.189 8.41287 82.6885 26.7638 78.1679 49.4362L67.3474 103.697L37.3586 103.653C20.7649 103.631 4.5495 117.466 1.1412 134.565C-2.26941 151.662 8.41874 165.542 25.0104 165.568L54.9991 165.612L40.2561 239.538C35.7345 262.208 49.9055 280.613 71.907 280.646H71.9091C93.9104 280.682 115.411 262.329 119.932 239.659L157.843 49.5588C162.365 26.8839 148.193 8.47924 126.19 8.44845" fill="black"/>
<path fill-rule="evenodd" clip-rule="evenodd" d="M576.497 124.139L546.509 124.095L561.252 50.1709C565.772 27.5008 551.602 9.09358 529.6 9.06276C507.598 9.02645 486.097 27.3801 481.575 50.0498L443.664 240.152C439.144 262.822 453.314 281.229 475.316 281.26C497.318 281.296 518.819 262.942 523.341 240.273L534.161 186.01L564.148 186.053C580.741 186.075 596.957 172.238 600.366 155.138C603.776 138.042 593.09 124.164 576.497 124.138" fill="black"/>
<path fill-rule="evenodd" clip-rule="evenodd" d="M328.244 0.211659C306.242 0.182609 284.741 18.529 280.222 41.2039L240.607 239.842C236.085 262.511 250.255 280.916 272.257 280.952C294.258 280.988 315.762 262.632 320.281 239.962L359.896 41.3221C364.418 18.6522 350.246 0.245086 328.244 0.211659Z" fill="black"/>
</svg>
